# xmcd
#
# Track frame offsets: 
#        150
#        8888
#        23623
#        36857
#        48533
#        58718
#        79463
#        89006
#        104691
#        116783
#
# Disc length: 1770 seconds
#
# Revision: 0
# Processed by: cddbd v1.5.2PL0 Copyright (c) Steve Scherf et al.
# Submitted via: ExactAudioCopy v1.3
#
DISCID=8706e80a
DTITLE=Doyle Lawson and Quicksilver - Hymn Time In The Country
DYEAR=1988
DGENRE=Bluegrass
TTITLE0=Sail On Toward Home
TTITLE1=I Know Who Holds Tomorrow
TTITLE2=Paradise Is Waiting
TTITLE3=John The Revelator
TTITLE4=O'ershadowed By His Love
TTITLE5=Lord, I Want To Go To Heaven
TTITLE6=Hallelujah
TTITLE7=His Eye Is On The Sparrow
TTITLE8=I'm Winging My Way Back Home
TTITLE9=He Will Pilot Me
EXTD=
EXTT0=
EXTT1=
EXTT2=
EXTT3=
EXTT4=
EXTT5=
EXTT6=
EXTT7=
EXTT8=
EXTT9=
PLAYORDER=
